HIERARCHY
ROOT hip
{
  OFFSET 0 0 0
  CHANNELS 6 Xposition Yposition Zposition Zrotation Yrotation Xrotation
  JOINT abdomen
  {
    OFFSET 0 20.6881 -0.73152
    CHANNELS 3 Zrotation Xrotation Yrotation
    JOINT chest
    {
      OFFSET 0 11.7043 -0.48768
      CHANNELS 3 Zrotation Xrotation Yrotation
      JOINT neck
      {
        OFFSET 0 22.1894 -2.19456
        CHANNELS 3 Zrotation Xrotation Yrotation
        JOINT head
        {
          OFFSET -0.24384 7.07133 1.2192
          CHANNELS 3 Zrotation Xrotation Yrotation
          JOINT leftEye
          {
            OFFSET 4.14528 8.04674 8.04672
            CHANNELS 3 Zrotation Xrotation Yrotation
            End Site
            {
              OFFSET 1 0 0
            }
          }
          JOINT rightEye
          {
            OFFSET -3.6576 8.04674 8.04672
            CHANNELS 3 Zrotation Xrotation Yrotation
            End Site
            {
              OFFSET 1 0 0
            }
          }
        }
      }
      JOINT rCollar
      {
        OFFSET -2.68224 19.2634 -4.8768
        CHANNELS 3 Zrotation Xrotation Yrotation
        JOINT rShldr
        {
          OFFSET -8.77824 -1.95073 1.46304
          CHANNELS 3 Zrotation Xrotation Yrotation
          JOINT rForeArm
          {
            OFFSET -28.1742 -1.7115 0.48768
            CHANNELS 3 Zrotation Xrotation Yrotation
            JOINT rHand
            {
              OFFSET -22.5879 0.773209 7.07136
              CHANNELS 3 Zrotation Xrotation Yrotation
              JOINT rThumb1
              {
                OFFSET -1.2192 -0.487915 3.41376
                CHANNELS 3 Zrotation Xrotation Yrotation
                JOINT rThumb2
                {
                  OFFSET -3.37035 -0.52449 3.41376
                  CHANNELS 3 Zrotation Xrotation Yrotation
                  End Site
                  {
                    OFFSET -1.78271 -1.18214 1.43049
                  }
                }
              }
              JOINT rIndex1
              {
                OFFSET -7.75947 0.938293 5.60832
                CHANNELS 3 Zrotation Xrotation Yrotation
                JOINT rIndex2
                {
                  OFFSET -2.54057 -0.884171 1.56538
                  CHANNELS 3 Zrotation Xrotation Yrotation
                  End Site
                  {
                    OFFSET -1.62519 -0.234802 1.16502
                  }
                }
              }
              JOINT rMid1
              {
                OFFSET -8.24714 1.18213 3.41376
                CHANNELS 3 Zrotation Xrotation Yrotation
                JOINT rMid2
                {
                  OFFSET -3.10165 -0.590103 1.0647
                  CHANNELS 3 Zrotation Xrotation Yrotation
                  End Site
                  {
                    OFFSET -2.48547 -0.328903 0.83742
                  }
                }
              }
              JOINT rRing1
              {
                OFFSET -8.82822 0.546677 1.51678
                CHANNELS 3 Zrotation Xrotation Yrotation
                JOINT rRing2
                {
                  OFFSET -2.60934 -0.819778 -0.0198488
                  CHANNELS 3 Zrotation Xrotation Yrotation
                  End Site
                  {
                    OFFSET -2.33842 -0.294052 0.168128
                  }
                }
              }
              JOINT rPinky1
              {
                OFFSET -8.27202 -0.0477905 -0.4584
                CHANNELS 3 Zrotation Xrotation Yrotation
                JOINT rPinky2
                {
                  OFFSET -1.82734 -0.647385 -0.700984
                  CHANNELS 3 Zrotation Xrotation Yrotation
                  End Site
                  {
                    OFFSET -1.69225 -0.51767 -0.607171
                  }
                }
              }
            }
          }
        }
      }
      JOINT lCollar
      {
        OFFSET 2.68224 19.2634 -4.8768
        CHANNELS 3 Zrotation Xrotation Yrotation
        JOINT lShldr
        {
          OFFSET 8.77824 -1.95073 1.46304
          CHANNELS 3 Zrotation Xrotation Yrotation
          JOINT lForeArm
          {
            OFFSET 28.1742 -1.7115 0.48768
            CHANNELS 3 Zrotation Xrotation Yrotation
            JOINT lHand
            {
              OFFSET 22.5879 0.773209 7.07136
              CHANNELS 3 Zrotation Xrotation Yrotation
              JOINT lThumb1
              {
                OFFSET 1.2192 -0.487915 3.41376
                CHANNELS 3 Zrotation Xrotation Yrotation
                JOINT lThumb2
                {
                  OFFSET 3.37035 -0.52449 3.41376
                  CHANNELS 3 Zrotation Xrotation Yrotation
                  End Site
                  {
                    OFFSET 1.78271 -1.18214 1.43049
                  }
                }
              }
              JOINT lIndex1
              {
                OFFSET 7.75947 0.938293 5.60832
                CHANNELS 3 Zrotation Xrotation Yrotation
                JOINT lIndex2
                {
                  OFFSET 2.54057 -0.884171 1.56538
                  CHANNELS 3 Zrotation Xrotation Yrotation
                  End Site
                  {
                    OFFSET 1.62519 -0.234802 1.16502
                  }
                }
              }
              JOINT lMid1
              {
                OFFSET 8.24714 1.18213 3.41376
                CHANNELS 3 Zrotation Xrotation Yrotation
                JOINT lMid2
                {
                  OFFSET 3.10165 -0.590103 1.0647
                  CHANNELS 3 Zrotation Xrotation Yrotation
                  End Site
                  {
                    OFFSET 2.48547 -0.328903 0.83742
                  }
                }
              }
              JOINT lRing1
              {
                OFFSET 8.82822 0.546677 1.51678
                CHANNELS 3 Zrotation Xrotation Yrotation
                JOINT lRing2
                {
                  OFFSET 2.60934 -0.819778 -0.0198488
                  CHANNELS 3 Zrotation Xrotation Yrotation
                  End Site
                  {
                    OFFSET 2.33842 -0.294052 0.168128
                  }
                }
              }
              JOINT lPinky1
              {
                OFFSET 8.27202 -0.0477905 -0.4584
                CHANNELS 3 Zrotation Xrotation Yrotation
                JOINT lPinky2
                {
                  OFFSET 1.82734 -0.647385 -0.700984
                  CHANNELS 3 Zrotation Xrotation Yrotation
                  End Site
                  {
                    OFFSET 1.69225 -0.51767 -0.607171
                  }
                }
              }
            }
          }
        }
      }
    }
  }
  JOINT rButtock
  {
    OFFSET -8.77824 4.35084 1.2192
    CHANNELS 3 Zrotation Xrotation Yrotation
    JOINT rThigh
    {
      OFFSET 0 -1.70687 -2.19456
      CHANNELS 3 Zrotation Xrotation Yrotation
      JOINT rShin
      {
        OFFSET 0 -36.8199 0.73152
        CHANNELS 3 Zrotation Xrotation Yrotation
        JOINT rFoot
        {
          OFFSET 0.73152 -45.1104 -5.12064
          CHANNELS 3 Zrotation Xrotation Yrotation
          End Site
          {
            OFFSET -1.1221 -3.69964 12.103
          }
        }
      }
    }
  }
  JOINT lButtock
  {
    OFFSET 8.77824 4.35084 1.2192
    CHANNELS 3 Zrotation Xrotation Yrotation
    JOINT lThigh
    {
      OFFSET 0 -1.70687 -2.19456
      CHANNELS 3 Zrotation Xrotation Yrotation
      JOINT lShin
      {
        OFFSET 0 -36.8199 0.73152
        CHANNELS 3 Zrotation Xrotation Yrotation
        JOINT lFoot
        {
          OFFSET -0.73152 -45.1104 -5.12064
          CHANNELS 3 Zrotation Xrotation Yrotation
          End Site
          {
            OFFSET 1.1221 -3.69964 12.103
          }
        }
      }
    }
  }
}
MOTION
Frames:	8
Frame Time:	0.03333
0.0 0.0 0.0 0.0 0.0 0.0 0.0 0.0 0.0 0.0 0.0 0.0 0.0 0.0 0.0 0.0 0.0 0.0 0.0 0.0 0.0 0.0 0.0 0.0 0.0 0.0 0.0 0.0 0.0 0.0 0.0 0.0 0.0 0.0 0.0 0.0 0.0 0.0 0.0 0.0 0.0 0.0 0.0 0.0 0.0 0.0 0.0 0.0 0.0 0.0 0.0 0.0 0.0 0.0 0.0 0.0 0.0 0.0 0.0 0.0 0.0 0.0 0.0 0.0 0.0 0.0 0.0 0.0 0.0 0.0 0.0 0.0 0.0 0.0 0.0 0.0 0.0 0.0 0.0 0.0 0.0 0.0 0.0 0.0 0.0 0.0 0.0 0.0 0.0 0.0 0.0 0.0 0.0 0.0 0.0 0.0 0.0 0.0 0.0 0.0 0.0 0.0 0.0 0.0 0.0 0.0 0.0 0.0 0.0 0.0 0.0 0.0 0.0 0.0 0.0 0.0 0.0 0.0 0.0 0.0 0.0 0.0 0.0 0.0 0.0 0.0 0.0 0.0 0.0 0.0 0.0 0.0
-0.029 15.2975 0.015799999999999998 -179.901685 -60.748691 178.992297 -0.062583 3.999086 -0.0 5.394526 6.391858 -31.523465 175.15921 14.072103 -79.888848 -158.860898 65.92999 -123.687089 -14.958973 -1.878265 14.234036 -17.602684 -2.396253 15.385588 -146.459571 -83.885871 -79.074845 -52.370963 66.192707 -130.22602 -174.549958 3.556603 -17.779125 -1.874204 6.141085 -146.423064 -171.540902 -4.351456 150.478877 -32.754978 -1.750097 12.675714 -4.302565 69.4523 -32.13145 -129.379462 27.95088 103.165998 -16.09336 -21.783576 -41.434408 -4.296046 23.485657 5.563567 -17.197583 -8.699419 -19.247974 -156.229181 0.415487 175.742269 -87.047211 -56.859062 -69.89143 -10.947634 -24.103546 -11.414064 82.67468 -48.046151 -171.507908 159.736304 25.344829 -171.208887 3.234491 75.687242 -170.578045 -179.682591 -9.821789 21.62611 12.652093 7.234848 29.231676 134.813947 -0.480099 -97.992122 95.124249 66.747801 -57.473057 -87.544339 -65.235932 -36.210592 147.652936 61.78931 -124.087529 -4.229777 -6.040382 -0.229433 33.101341 39.317631 -25.305584 156.135198 -3.06159 -177.745209 135.305521 58.28569 -153.573082 -43.273595 80.493503 8.142773 49.785303 -18.932647 66.772647 -8.953947 52.970652 -0.0 -0.355973 -8.606005 -2.196573 -78.618433 37.421041 96.35727 46.330993 16.663668 105.308612 1.96821 46.436087 180.0 -5.87861 0.497932 -132.932821 -125.544869 14.296817 57.495119
0.5701999999999999 30.4921 0.3805 -160.715048 86.402 -163.471847 -14.481446 29.897499 6.805509 13.375314 -49.63542 7.101314 -174.166784 44.954655 110.402849 91.003949 -38.270322 15.484627 -54.130496 -9.715457 18.886886 -62.809824 -8.970694 14.643381 3.202983 59.110647 0.663671 -91.268006 34.870036 113.551349 20.778506 -25.169117 -113.545317 157.56488 12.311875 148.182989 47.525357 -29.871302 -2.156413 -42.611893 -49.69868 -138.908165 -51.130936 45.005643 95.976269 12.626543 -4.265522 56.474671 118.503968 84.367486 -21.093796 -3.143076 44.217668 -60.036384 92.984413 14.986554 -11.33666 -50.499002 80.815044 71.04145 -31.044112 -0.559001 -124.947297 -102.860526 -30.699856 -103.816501 -28.535104 36.825614 0.483741 -56.198398 -1.767315 -8.920063 2.553623 1.839385 -131.054826 -7.82063 -30.444929 41.316895 85.882755 64.024623 -47.177328 35.702679 -67.598912 -159.465748 21.4052 -36.049512 83.699562 154.642097 -65.978066 171.47548 29.610865 -12.986504 102.154629 177.646037 -48.982892 -110.372393 81.939385 -20.388176 94.717118 -30.44529 61.004291 17.936727 -125.260362 44.915028 63.94016 118.134604 -37.938336 102.372548 -4.808325 10.472045 24.835245 16.88135 -72.439246 -136.767193 -76.260782 -41.584395 -167.101158 14.477162 45.133166 -144.600626 66.234208 10.560758 25.810935 -115.217878 14.450443 96.702708 76.708521 -35.386804 25.844435 109.492651 -35.980381 33.620975
1.0071999999999999 30.4879 0.8714 -160.382523 85.086558 -161.131225 -9.339103 23.876565 3.450162 26.442808 -62.585633 16.691001 170.818663 -5.024977 -8.850654 -134.032325 53.272604 -90.070462 -74.683741 12.972134 -16.950845 -66.412536 15.187462 -23.025196 -142.958203 4.427722 -175.134362 77.827553 -73.876051 107.548402 -139.530912 -81.999465 -40.607535 9.030444 31.651591 -4.358771 118.637728 -41.700265 16.691594 -41.59337 69.626934 12.875767 -10.063306 -64.711667 -176.181113 -176.148642 -31.825792 125.443663 115.182458 63.719778 1.434761 -11.640623 71.557851 -30.41383 -25.667681 14.436766 -173.142758 16.989716 51.772037 -1.277334 -40.405275 62.726088 -146.045982 -168.998353 12.031811 -134.766015 53.173962 -59.198881 110.725181 35.15635 -9.258383 28.323797 170.385984 8.382403 56.452712 13.997357 -32.414702 50.980931 4.137529 -10.073526 15.85146 44.401425 5.669847 108.664899 27.062304 -5.334913 88.455761 61.697694 60.086458 -32.100333 -178.365676 7.500491 157.75988 163.230116 25.507333 -125.807016 -82.732701 79.13635 81.724003 21.810268 73.304448 -34.344133 135.61307 -8.503115 96.948772 150.14281 64.671385 160.003412 -130.952051 53.309467 -55.166658 -177.247102 4.34258 147.583326 49.332607 -61.298302 -110.695847 165.366899 -25.6958 76.345185 59.885315 12.640355 25.158466 -104.969264 11.922056 46.241833 63.175636 12.436887 -113.303474 162.494954 -57.43979 -165.774279
1.4382000000000001 31.2318 1.2638 -167.307354 84.946265 -167.32934 -7.695886 21.796917 -54.285375 70.170728 -23.568839 83.440289 159.535639 1.975991 -78.235482 -82.14451 -22.28232 -122.304086 -60.80962 16.066603 -27.04673 -56.370985 18.482169 -33.778672 -24.340183 -39.725745 -70.788458 -56.828097 -58.930661 -80.19963 -172.538356 33.356079 -80.167643 0.786676 37.270975 -2.713276 179.467983 -54.662923 37.702739 -19.061756 -54.808657 -34.444105 82.365319 -71.169739 -79.529449 -171.31294 -66.521779 131.557138 -25.276834 1.484996 161.712756 -130.484627 -6.178732 154.62822 57.722806 -54.135929 -81.798325 -84.58414 73.621823 123.429317 109.51542 -21.612323 -6.77887 14.254906 -19.313482 -11.746427 113.755939 -36.279136 164.156931 44.144195 -7.866154 -16.720527 78.980149 55.762304 95.686178 154.190866 -33.437358 -132.485589 -81.978685 -66.376519 -35.345732 -109.288604 -10.492624 -153.782298 -166.86282 15.913942 149.664074 2.146869 46.115744 -13.904202 133.16454 -27.590489 113.853175 149.039577 8.601662 174.052005 -158.311428 73.274593 156.249827 -16.0446 19.991943 -5.426618 141.563586 -19.128474 85.148916 160.117248 6.770922 134.355208 -133.946393 58.662401 -50.536434 -171.333437 7.275855 112.755434 65.164957 -30.227959 -60.151841 141.536074 -43.92829 93.774119 8.142771 6.747715 -11.48816 -44.99515 -29.451542 -63.8134 -53.261323 43.83111 108.950571 -129.38133 -33.709514 -67.546273
1.7094999999999998 35.6315 1.8858 -172.453761 82.649887 -171.870083 -8.627999 25.832705 -82.69865 83.196054 0.343805 105.199274 164.512656 -4.808396 -107.042404 -61.578292 -58.451694 -107.935188 -56.020921 15.392775 -28.509032 -47.552774 16.572361 -36.585111 18.658532 -3.027544 -60.79866 34.045276 88.80446 6.716725 -70.11176 -68.169278 30.922434 3.666946 18.326478 -2.14832 -143.012415 -54.531097 57.556956 -45.407413 -19.583237 -1.507303 -34.63183 -39.030546 151.700259 -172.427601 2.735403 120.284334 134.864301 -27.148621 -17.622906 105.049256 -54.215768 96.849042 27.153902 83.489168 112.257735 -25.750298 -21.83076 -23.797968 -13.874487 70.319614 -176.787494 -16.785184 -43.209136 -17.028082 116.977745 -57.06522 163.831858 -129.623448 -34.117764 -162.986976 -172.187991 30.665342 -24.175163 121.238092 28.997271 -81.939102 90.280563 54.999747 -44.435521 36.910116 -31.70977 165.601204 -15.449826 42.375095 88.119511 163.131648 -62.732582 -168.706851 154.122908 -30.08421 119.92961 98.825618 -37.136609 127.881231 56.994047 -49.317415 49.504559 18.209856 3.690029 18.590028 108.598873 -23.403928 57.677277 146.39934 -1.106388 118.744643 64.568556 56.890808 50.944394 -109.11894 -21.556893 82.741415 58.592536 -42.431701 -43.726784 144.344103 18.747011 90.676432 2.16701 7.139574 -16.933031 -35.478829 -34.416905 57.857983 73.741087 20.214064 91.671001 -164.323384 60.064647 21.320177
1.8617000000000001 44.9889 2.7982 -173.895659 81.849317 -172.688127 -15.666776 33.639922 8.280488 -172.306911 -67.152408 -153.059889 175.902657 -19.385296 -129.30229 1.134011 -70.563172 -40.615779 -52.680616 20.198787 -39.572731 -48.068213 18.49562 -40.116006 -62.066872 -12.631432 -100.508928 -0.879851 16.773542 -22.773811 -61.14005 -3.341094 168.702314 33.541846 -46.15789 23.009177 -113.320184 -42.787108 81.398213 6.648435 -72.442619 16.444864 122.932987 -60.774179 -23.767819 -72.481521 81.500803 56.464656 70.135319 61.517598 47.259663 55.764786 89.499921 -74.481556 54.784063 -65.453022 -85.863372 -153.389121 -46.554725 131.355093 113.278425 -42.98917 -12.608346 -15.212997 3.690399 6.607143 -9.168849 -3.535185 8.734869 74.567659 -36.759124 84.519292 12.393066 32.88447 149.319171 134.440058 9.896774 -105.579993 6.684826 -11.858573 10.41407 159.750537 -18.193036 161.462855 -177.88573 12.623369 177.48689 162.076268 -73.926493 -82.843423 11.538809 46.69552 74.712491 -10.076578 -4.724798 -55.804332 87.045529 -64.874165 90.109756 34.489775 -7.626875 -14.399479 -179.899636 -9.113295 98.979758 100.103592 -44.97673 76.127244 66.949214 58.093576 51.777514 -111.68659 -14.402019 -0.0 61.466506 28.281483 11.450258 -126.545094 -62.598029 -149.870946 1.918342 5.957273 -17.885844 -30.635136 -35.089543 -19.323075 -39.163509 60.591754 -58.492295 -99.267959 5.109409 -123.545553
1.9640000000000002 52.4861 3.6952 -174.421146 81.642912 -172.92932 -14.628074 35.804044 -45.872066 138.619411 -33.079341 137.593912 -160.857997 -32.13152 143.964248 77.62002 4.257653 44.325913 -45.326324 21.223973 -48.332702 -47.265391 18.965571 -41.786837 -170.484152 12.950946 -128.618348 -177.152925 6.585327 130.996271 -105.870156 -55.771172 107.039874 116.218791 -56.549207 104.321782 -128.602053 -46.64187 80.487555 -38.410161 -82.18691 -29.918842 104.819741 -19.754853 -19.626858 72.989661 -79.486368 -5.89795 73.792749 58.992765 33.847913 -172.47986 -1.430761 168.983803 121.946519 4.572367 -5.667405 130.123527 -20.639918 144.627441 -19.872812 13.206129 -151.546845 -124.464908 11.392906 -153.531816 -0.045049 0.054575 9.458684 -119.465095 38.347969 112.171162 1.779116 12.138698 -124.233817 50.464739 -51.176228 72.011555 92.577442 47.157932 -42.684598 -15.162605 -32.176888 96.998166 27.165223 14.768792 56.708338 136.03842 84.709271 -72.341046 39.470509 31.997159 54.231414 133.483797 -10.644098 -108.191331 140.773892 -38.634529 153.608638 -93.013224 -41.211511 -80.642151 75.677075 -8.502319 33.125767 -82.494101 64.564746 37.497781 -10.242592 2.272942 13.833455 30.61474 -59.777505 -62.679226 -65.549874 8.94505 4.785161 136.535618 46.317449 29.495031 -77.42593 57.155834 -47.262952 85.245056 -3.533774 47.581157 13.429778 69.517474 98.194072 -94.27116 -8.763491 -56.468347
